<mxfile host="65bd71144e">
    <diagram id="vzc-MDLJNrliid0twJvP" name="Page-1">
        <mxGraphModel dx="4746" dy="2296" grid="1" gridSize="10" guides="1" tooltips="1" connect="1" arrows="1" fold="1" page="1" pageScale="1" pageWidth="850" pageHeight="1100" math="0" shadow="0">
            <root>
                <mxCell id="0"/>
                <mxCell id="1" parent="0"/>
                <mxCell id="2" value="Manager" style="swimlane;fontStyle=1;align=center;verticalAlign=top;childLayout=stackLayout;horizontal=1;startSize=26;horizontalStack=0;resizeParent=1;resizeParentMax=0;resizeLast=0;collapsible=1;marginBottom=0;fontSize=24;" parent="1" vertex="1">
                    <mxGeometry x="-840" y="180" width="790" height="310" as="geometry">
                        <mxRectangle x="90" y="60" width="60" height="26" as="alternateBounds"/>
                    </mxGeometry>
                </mxCell>
                <mxCell id="3" value="-workerfact :WorkerFactory&#10;-menusc :MenuSection" style="text;strokeColor=none;fillColor=none;align=left;verticalAlign=top;spacingLeft=4;spacingRight=4;overflow=hidden;rotatable=0;points=[[0,0.5],[1,0.5]];portConstraint=eastwest;fontSize=24;" parent="2" vertex="1">
                    <mxGeometry y="26" width="790" height="84" as="geometry"/>
                </mxCell>
                <mxCell id="4" value="" style="line;strokeWidth=1;fillColor=none;align=left;verticalAlign=middle;spacingTop=-1;spacingLeft=3;spacingRight=3;rotatable=0;labelPosition=right;points=[];portConstraint=eastwest;fontSize=24;" parent="2" vertex="1">
                    <mxGeometry y="110" width="790" height="8" as="geometry"/>
                </mxCell>
                <mxCell id="5" value="+manager()&#10;+manager(String name,int salary,Branch branch)&#10;+addNewWorker(WorkerType wt, String Name , int sal):void&#10;+addsection(menuSection ms):void&#10;+editmenusection(int id,menusection ms , list&lt;menuitems&gt; mitem):bool&#10;+removeSection(int id):bool" style="text;strokeColor=none;fillColor=none;align=left;verticalAlign=top;spacingLeft=4;spacingRight=4;overflow=hidden;rotatable=0;points=[[0,0.5],[1,0.5]];portConstraint=eastwest;fontSize=24;" parent="2" vertex="1">
                    <mxGeometry y="118" width="790" height="192" as="geometry"/>
                </mxCell>
                <mxCell id="6" value="Worker" style="swimlane;fontStyle=1;align=center;verticalAlign=top;childLayout=stackLayout;horizontal=1;startSize=26;horizontalStack=0;resizeParent=1;resizeParentMax=0;resizeLast=0;collapsible=1;marginBottom=0;fontSize=24;" parent="1" vertex="1">
                    <mxGeometry x="125" y="20" width="510" height="230" as="geometry">
                        <mxRectangle x="90" y="60" width="60" height="26" as="alternateBounds"/>
                    </mxGeometry>
                </mxCell>
                <mxCell id="7" value="+id :int&#10;+salary:int&#10;+name:String&#10;+branchname:String&#10;+branch :Branch&#10;+Workertype: WorkerType" style="text;strokeColor=none;fillColor=none;align=left;verticalAlign=top;spacingLeft=4;spacingRight=4;overflow=hidden;rotatable=0;points=[[0,0.5],[1,0.5]];portConstraint=eastwest;fontSize=24;" parent="6" vertex="1">
                    <mxGeometry y="26" width="510" height="114" as="geometry"/>
                </mxCell>
                <mxCell id="8" value="" style="line;strokeWidth=1;fillColor=none;align=left;verticalAlign=middle;spacingTop=-1;spacingLeft=3;spacingRight=3;rotatable=0;labelPosition=right;points=[];portConstraint=eastwest;fontSize=24;" parent="6" vertex="1">
                    <mxGeometry y="140" width="510" height="8" as="geometry"/>
                </mxCell>
                <mxCell id="9" value="+Worker(String wname,int  salary)&#10;+worker(String name,int salary,Branch branch)&#10;" style="text;strokeColor=none;fillColor=none;align=left;verticalAlign=top;spacingLeft=4;spacingRight=4;overflow=hidden;rotatable=0;points=[[0,0.5],[1,0.5]];portConstraint=eastwest;fontSize=24;" parent="6" vertex="1">
                    <mxGeometry y="148" width="510" height="82" as="geometry"/>
                </mxCell>
                <mxCell id="10" value="Reciptionist" style="swimlane;fontStyle=1;align=center;verticalAlign=top;childLayout=stackLayout;horizontal=1;startSize=26;horizontalStack=0;resizeParent=1;resizeParentMax=0;resizeLast=0;collapsible=1;marginBottom=0;fontSize=24;" parent="1" vertex="1">
                    <mxGeometry x="880" y="180" width="980" height="290" as="geometry">
                        <mxRectangle x="90" y="60" width="60" height="26" as="alternateBounds"/>
                    </mxGeometry>
                </mxCell>
                <mxCell id="11" value="" style="line;strokeWidth=1;fillColor=none;align=left;verticalAlign=middle;spacingTop=-1;spacingLeft=3;spacingRight=3;rotatable=0;labelPosition=right;points=[];portConstraint=eastwest;fontSize=24;" parent="10" vertex="1">
                    <mxGeometry y="26" width="980" height="8" as="geometry"/>
                </mxCell>
                <mxCell id="12" value="+Reciptionist()&#10;+Reciptionist(String name,int salary,Branch branch)&#10;+addTable(int seat,PositionType position):void&#10;+modifyTable(int seat,PositionType position,int id):bool&#10;+removeTable(int id):bool&#10;+CreateReservation(Table table, dateTime dt, String name,String name, String phone):void&#10;+cancelReservation(int id):bool&#10;+CheckInReservation(int ResID):Reservation" style="text;strokeColor=none;fillColor=none;align=left;verticalAlign=top;spacingLeft=4;spacingRight=4;overflow=hidden;rotatable=0;points=[[0,0.5],[1,0.5]];portConstraint=eastwest;fontSize=24;" parent="10" vertex="1">
                    <mxGeometry y="34" width="980" height="256" as="geometry"/>
                </mxCell>
                <mxCell id="13" value="Chef" style="swimlane;fontStyle=1;align=center;verticalAlign=top;childLayout=stackLayout;horizontal=1;startSize=26;horizontalStack=0;resizeParent=1;resizeParentMax=0;resizeLast=0;collapsible=1;marginBottom=0;fontSize=24;" parent="1" vertex="1">
                    <mxGeometry x="700" y="496" width="490" height="160" as="geometry">
                        <mxRectangle x="90" y="60" width="60" height="26" as="alternateBounds"/>
                    </mxGeometry>
                </mxCell>
                <mxCell id="14" value="" style="line;strokeWidth=1;fillColor=none;align=left;verticalAlign=middle;spacingTop=-1;spacingLeft=3;spacingRight=3;rotatable=0;labelPosition=right;points=[];portConstraint=eastwest;fontSize=24;" parent="13" vertex="1">
                    <mxGeometry y="26" width="490" height="8" as="geometry"/>
                </mxCell>
                <mxCell id="15" value="+Chef()&#10;+Chef(String name,int  salary,Branch branch)&#10;+finishOrder(int orderID):bool&#10;" style="text;strokeColor=none;fillColor=none;align=left;verticalAlign=top;spacingLeft=4;spacingRight=4;overflow=hidden;rotatable=0;points=[[0,0.5],[1,0.5]];portConstraint=eastwest;fontSize=24;" parent="13" vertex="1">
                    <mxGeometry y="34" width="490" height="126" as="geometry"/>
                </mxCell>
                <mxCell id="16" value="waiter" style="swimlane;fontStyle=1;align=center;verticalAlign=top;childLayout=stackLayout;horizontal=1;startSize=26;horizontalStack=0;resizeParent=1;resizeParentMax=0;resizeLast=0;collapsible=1;marginBottom=0;fontSize=24;" parent="1" vertex="1">
                    <mxGeometry x="-60" y="500" width="700" height="190" as="geometry">
                        <mxRectangle x="90" y="60" width="60" height="26" as="alternateBounds"/>
                    </mxGeometry>
                </mxCell>
                <mxCell id="17" value="-order: Order" style="text;strokeColor=none;fillColor=none;align=left;verticalAlign=top;spacingLeft=4;spacingRight=4;overflow=hidden;rotatable=0;points=[[0,0.5],[1,0.5]];portConstraint=eastwest;fontSize=24;" parent="16" vertex="1">
                    <mxGeometry y="26" width="700" height="34" as="geometry"/>
                </mxCell>
                <mxCell id="18" value="" style="line;strokeWidth=1;fillColor=none;align=left;verticalAlign=middle;spacingTop=-1;spacingLeft=3;spacingRight=3;rotatable=0;labelPosition=right;points=[];portConstraint=eastwest;fontSize=24;" parent="16" vertex="1">
                    <mxGeometry y="60" width="700" height="8" as="geometry"/>
                </mxCell>
                <mxCell id="19" value="+waiter()&#10;+waiter(String name,int salary,Branch branch)&#10;+CreateNewOrder(Table table):void&#10;" style="text;strokeColor=none;fillColor=none;align=left;verticalAlign=top;spacingLeft=4;spacingRight=4;overflow=hidden;rotatable=0;points=[[0,0.5],[1,0.5]];portConstraint=eastwest;fontSize=24;" parent="16" vertex="1">
                    <mxGeometry y="68" width="700" height="122" as="geometry"/>
                </mxCell>
                <mxCell id="20" value="WorkerFactory" style="swimlane;fontStyle=1;align=center;verticalAlign=top;childLayout=stackLayout;horizontal=1;startSize=26;horizontalStack=0;resizeParent=1;resizeParentMax=0;resizeLast=0;collapsible=1;marginBottom=0;fontSize=24;" parent="1" vertex="1">
                    <mxGeometry x="-670" y="30" width="730" height="90" as="geometry">
                        <mxRectangle x="90" y="60" width="60" height="26" as="alternateBounds"/>
                    </mxGeometry>
                </mxCell>
                <mxCell id="21" value="" style="line;strokeWidth=1;fillColor=none;align=left;verticalAlign=middle;spacingTop=-1;spacingLeft=3;spacingRight=3;rotatable=0;labelPosition=right;points=[];portConstraint=eastwest;fontSize=24;" parent="20" vertex="1">
                    <mxGeometry y="26" width="730" height="8" as="geometry"/>
                </mxCell>
                <mxCell id="22" value="+AddnewWorker(WorkerType wt, String name , int salary):Worker" style="text;strokeColor=none;fillColor=none;align=left;verticalAlign=top;spacingLeft=4;spacingRight=4;overflow=hidden;rotatable=0;points=[[0,0.5],[1,0.5]];portConstraint=eastwest;fontSize=24;" parent="20" vertex="1">
                    <mxGeometry y="34" width="730" height="56" as="geometry"/>
                </mxCell>
                <mxCell id="23" value="" style="endArrow=block;endSize=16;endFill=0;html=1;rounded=0;fontSize=24;strokeWidth=1;entryX=0;entryY=0.5;entryDx=0;entryDy=0;exitX=1;exitY=0.5;exitDx=0;exitDy=0;" parent="1" source="5" target="9" edge="1">
                    <mxGeometry width="160" relative="1" as="geometry">
                        <mxPoint x="330" y="123.24137931034477" as="sourcePoint"/>
                        <mxPoint x="200" y="144.75862068965512" as="targetPoint"/>
                    </mxGeometry>
                </mxCell>
                <mxCell id="24" value="" style="endArrow=block;endSize=16;endFill=0;html=1;rounded=0;fontSize=24;strokeWidth=1;exitX=0.25;exitY=0;exitDx=0;exitDy=0;entryX=1.012;entryY=0.921;entryDx=0;entryDy=0;entryPerimeter=0;" parent="1" source="10" target="7" edge="1">
                    <mxGeometry width="160" relative="1" as="geometry">
                        <mxPoint x="425" y="133.24137931034477" as="sourcePoint"/>
                        <mxPoint x="720.5099999999998" y="145.8639999999998" as="targetPoint"/>
                    </mxGeometry>
                </mxCell>
                <mxCell id="25" value="" style="endArrow=block;endSize=16;endFill=0;html=1;rounded=0;fontSize=24;strokeWidth=1;exitX=0.159;exitY=-0.009;exitDx=0;exitDy=0;exitPerimeter=0;" parent="1" source="13" target="9" edge="1">
                    <mxGeometry width="160" relative="1" as="geometry">
                        <mxPoint x="500" y="270" as="sourcePoint"/>
                        <mxPoint x="671.0399999999995" y="252.46000000000004" as="targetPoint"/>
                    </mxGeometry>
                </mxCell>
                <mxCell id="26" value="" style="endArrow=block;endSize=16;endFill=0;html=1;rounded=0;fontSize=24;strokeWidth=1;exitX=0.5;exitY=0;exitDx=0;exitDy=0;" parent="1" source="16" target="9" edge="1">
                    <mxGeometry width="160" relative="1" as="geometry">
                        <mxPoint x="425" y="280" as="sourcePoint"/>
                        <mxPoint x="130.15999999999985" y="159.58400000000006" as="targetPoint"/>
                    </mxGeometry>
                </mxCell>
                <mxCell id="27" value="" style="endArrow=classic;html=1;rounded=0;exitX=1;exitY=0.5;exitDx=0;exitDy=0;entryX=0;entryY=0.5;entryDx=0;entryDy=0;fontSize=24;" parent="1" source="22" target="7" edge="1">
                    <mxGeometry width="50" height="50" relative="1" as="geometry">
                        <mxPoint x="90" y="100" as="sourcePoint"/>
                        <mxPoint x="-40" y="130" as="targetPoint"/>
                    </mxGeometry>
                </mxCell>
                <mxCell id="40" value="MenuComponent" style="swimlane;fontStyle=1;align=center;verticalAlign=top;childLayout=stackLayout;horizontal=1;startSize=26;horizontalStack=0;resizeParent=1;resizeParentMax=0;resizeLast=0;collapsible=1;marginBottom=0;fontSize=24;" parent="1" vertex="1">
                    <mxGeometry x="670" y="1215" width="500" height="470" as="geometry">
                        <mxRectangle x="90" y="60" width="60" height="26" as="alternateBounds"/>
                    </mxGeometry>
                </mxCell>
                <mxCell id="41" value="id :int&#10;price :double&#10;name :String&#10;description:String&#10;MenuSectionID: int&#10;menuSection : MenuSection&#10;" style="text;strokeColor=none;fillColor=none;align=left;verticalAlign=top;spacingLeft=4;spacingRight=4;overflow=hidden;rotatable=0;points=[[0,0.5],[1,0.5]];portConstraint=eastwest;fontSize=24;" parent="40" vertex="1">
                    <mxGeometry y="26" width="500" height="184" as="geometry"/>
                </mxCell>
                <mxCell id="42" value="" style="line;strokeWidth=1;fillColor=none;align=left;verticalAlign=middle;spacingTop=-1;spacingLeft=3;spacingRight=3;rotatable=0;labelPosition=right;points=[];portConstraint=eastwest;fontSize=24;" parent="40" vertex="1">
                    <mxGeometry y="210" width="500" height="8" as="geometry"/>
                </mxCell>
                <mxCell id="43" value="+MenuComponenet()&#10;+MenuComponent(String name, String desc)&#10;+add(MenuComponent menucmp): void&#10;+Remove(MenuComponent menucmp): void &#10;+getChild(int index ): MenuComponent&#10;+SetItem(int index, MenuComp ): Void&#10;+print():void" style="text;strokeColor=none;fillColor=none;align=left;verticalAlign=top;spacingLeft=4;spacingRight=4;overflow=hidden;rotatable=0;points=[[0,0.5],[1,0.5]];portConstraint=eastwest;fontSize=24;" parent="40" vertex="1">
                    <mxGeometry y="218" width="500" height="252" as="geometry"/>
                </mxCell>
                <mxCell id="44" value="MenuItem" style="swimlane;fontStyle=1;align=center;verticalAlign=top;childLayout=stackLayout;horizontal=1;startSize=26;horizontalStack=0;resizeParent=1;resizeParentMax=0;resizeLast=0;collapsible=1;marginBottom=0;fontSize=24;" parent="1" vertex="1">
                    <mxGeometry x="1110" y="970" width="560" height="190" as="geometry">
                        <mxRectangle x="90" y="60" width="60" height="26" as="alternateBounds"/>
                    </mxGeometry>
                </mxCell>
                <mxCell id="45" value="+iscontainer :bool" style="text;strokeColor=none;fillColor=none;align=left;verticalAlign=top;spacingLeft=4;spacingRight=4;overflow=hidden;rotatable=0;points=[[0,0.5],[1,0.5]];portConstraint=eastwest;fontSize=24;" parent="44" vertex="1">
                    <mxGeometry y="26" width="560" height="34" as="geometry"/>
                </mxCell>
                <mxCell id="46" value="" style="line;strokeWidth=1;fillColor=none;align=left;verticalAlign=middle;spacingTop=-1;spacingLeft=3;spacingRight=3;rotatable=0;labelPosition=right;points=[];portConstraint=eastwest;fontSize=24;" parent="44" vertex="1">
                    <mxGeometry y="60" width="560" height="8" as="geometry"/>
                </mxCell>
                <mxCell id="47" value="+MenuItem()&#10;+MenuItem(string name, string desc, double price)&#10;+print():void" style="text;strokeColor=none;fillColor=none;align=left;verticalAlign=top;spacingLeft=4;spacingRight=4;overflow=hidden;rotatable=0;points=[[0,0.5],[1,0.5]];portConstraint=eastwest;fontSize=24;" parent="44" vertex="1">
                    <mxGeometry y="68" width="560" height="122" as="geometry"/>
                </mxCell>
                <mxCell id="48" value="MenuSection" style="swimlane;fontStyle=1;align=center;verticalAlign=top;childLayout=stackLayout;horizontal=1;startSize=26;horizontalStack=0;resizeParent=1;resizeParentMax=0;resizeLast=0;collapsible=1;marginBottom=0;fontSize=24;" parent="1" vertex="1">
                    <mxGeometry x="1290" y="1277" width="450" height="408" as="geometry">
                        <mxRectangle x="90" y="60" width="60" height="26" as="alternateBounds"/>
                    </mxGeometry>
                </mxCell>
                <mxCell id="49" value="+Items :List&lt;MenuComponent&gt;&#10;+BranchName:string&#10;+Branch:Branch&#10;+isContainer:boolean&#10;" style="text;strokeColor=none;fillColor=none;align=left;verticalAlign=top;spacingLeft=4;spacingRight=4;overflow=hidden;rotatable=0;points=[[0,0.5],[1,0.5]];portConstraint=eastwest;fontSize=24;" parent="48" vertex="1">
                    <mxGeometry y="26" width="450" height="150" as="geometry"/>
                </mxCell>
                <mxCell id="50" value="" style="line;strokeWidth=1;fillColor=none;align=left;verticalAlign=middle;spacingTop=-1;spacingLeft=3;spacingRight=3;rotatable=0;labelPosition=right;points=[];portConstraint=eastwest;fontSize=24;" parent="48" vertex="1">
                    <mxGeometry y="176" width="450" height="8" as="geometry"/>
                </mxCell>
                <mxCell id="51" value="+MenuSection(string name, string desc)&#10;+Add(MenuCmp cmp):void&#10;+Remove(MenuCmp cmp):void&#10;+MenuCmp GetChild(int idx):void&#10;+setItem(int idx, MenuCmp cmp):void&#10;+Print():void&#10;" style="text;strokeColor=none;fillColor=none;align=left;verticalAlign=top;spacingLeft=4;spacingRight=4;overflow=hidden;rotatable=0;points=[[0,0.5],[1,0.5]];portConstraint=eastwest;fontSize=24;" parent="48" vertex="1">
                    <mxGeometry y="184" width="450" height="224" as="geometry"/>
                </mxCell>
                <mxCell id="52" value="" style="endArrow=block;endSize=16;endFill=0;html=1;rounded=0;fontSize=24;strokeWidth=1;exitX=-0.008;exitY=0.749;exitDx=0;exitDy=0;exitPerimeter=0;" parent="1" source="51" target="43" edge="1">
                    <mxGeometry width="160" relative="1" as="geometry">
                        <mxPoint x="1320" y="1426.6530120481925" as="sourcePoint"/>
                        <mxPoint x="365.15999999999985" y="511.58399999999995" as="targetPoint"/>
                    </mxGeometry>
                </mxCell>
                <mxCell id="53" value="" style="endArrow=block;endSize=16;endFill=0;html=1;rounded=0;fontSize=24;strokeWidth=1;entryX=1.012;entryY=1.03;entryDx=0;entryDy=0;entryPerimeter=0;" parent="1" source="44" target="41" edge="1">
                    <mxGeometry width="160" relative="1" as="geometry">
                        <mxPoint x="1090" y="1391.86" as="sourcePoint"/>
                        <mxPoint x="886.5" y="1288.5739999999998" as="targetPoint"/>
                    </mxGeometry>
                </mxCell>
                <mxCell id="54" value="" style="endArrow=open;endFill=1;endSize=12;html=1;rounded=0;exitX=-0.008;exitY=0.324;exitDx=0;exitDy=0;exitPerimeter=0;entryX=1;entryY=0.5;entryDx=0;entryDy=0;fontSize=24;" parent="1" source="49" target="43" edge="1">
                    <mxGeometry width="160" relative="1" as="geometry">
                        <mxPoint x="1320" y="1683.6" as="sourcePoint"/>
                        <mxPoint x="75" y="1142" as="targetPoint"/>
                    </mxGeometry>
                </mxCell>
                <mxCell id="91" value="INotifService" style="swimlane;fontStyle=1;align=center;verticalAlign=top;childLayout=stackLayout;horizontal=1;startSize=26;horizontalStack=0;resizeParent=1;resizeParentMax=0;resizeLast=0;collapsible=1;marginBottom=0;fontSize=24;" parent="1" vertex="1">
                    <mxGeometry x="-590" y="1330" width="530" height="70" as="geometry">
                        <mxRectangle x="90" y="60" width="60" height="26" as="alternateBounds"/>
                    </mxGeometry>
                </mxCell>
                <mxCell id="92" value="" style="line;strokeWidth=1;fillColor=none;align=left;verticalAlign=middle;spacingTop=-1;spacingLeft=3;spacingRight=3;rotatable=0;labelPosition=right;points=[];portConstraint=eastwest;fontSize=24;" parent="91" vertex="1">
                    <mxGeometry y="26" width="530" height="8" as="geometry"/>
                </mxCell>
                <mxCell id="93" value="+SendNotif(NotifRequest mailRequest):void&#10;" style="text;strokeColor=none;fillColor=none;align=left;verticalAlign=top;spacingLeft=4;spacingRight=4;overflow=hidden;rotatable=0;points=[[0,0.5],[1,0.5]];portConstraint=eastwest;fontSize=24;" parent="91" vertex="1">
                    <mxGeometry y="34" width="530" height="36" as="geometry"/>
                </mxCell>
                <mxCell id="94" value="MailService" style="swimlane;fontStyle=1;align=center;verticalAlign=top;childLayout=stackLayout;horizontal=1;startSize=26;horizontalStack=0;resizeParent=1;resizeParentMax=0;resizeLast=0;collapsible=1;marginBottom=0;fontSize=24;" parent="1" vertex="1">
                    <mxGeometry x="-755" y="1528" width="380" height="160" as="geometry">
                        <mxRectangle x="90" y="60" width="60" height="26" as="alternateBounds"/>
                    </mxGeometry>
                </mxCell>
                <mxCell id="95" value="- final MailSettings _mailSettings&#10;" style="text;strokeColor=none;fillColor=none;align=left;verticalAlign=top;spacingLeft=4;spacingRight=4;overflow=hidden;rotatable=0;points=[[0,0.5],[1,0.5]];portConstraint=eastwest;fontSize=24;" parent="94" vertex="1">
                    <mxGeometry y="26" width="380" height="34" as="geometry"/>
                </mxCell>
                <mxCell id="96" value="" style="line;strokeWidth=1;fillColor=none;align=left;verticalAlign=middle;spacingTop=-1;spacingLeft=3;spacingRight=3;rotatable=0;labelPosition=right;points=[];portConstraint=eastwest;fontSize=24;" parent="94" vertex="1">
                    <mxGeometry y="60" width="380" height="8" as="geometry"/>
                </mxCell>
                <mxCell id="97" value="+MailService(MailSettings mailSettings)&#10;+SendNotif(NotifRequest mailRequest)" style="text;strokeColor=none;fillColor=none;align=left;verticalAlign=top;spacingLeft=4;spacingRight=4;overflow=hidden;rotatable=0;points=[[0,0.5],[1,0.5]];portConstraint=eastwest;fontSize=24;" parent="94" vertex="1">
                    <mxGeometry y="68" width="380" height="92" as="geometry"/>
                </mxCell>
                <mxCell id="98" value="MailSettings" style="swimlane;fontStyle=1;align=center;verticalAlign=top;childLayout=stackLayout;horizontal=1;startSize=26;horizontalStack=0;resizeParent=1;resizeParentMax=0;resizeLast=0;collapsible=1;marginBottom=0;fontSize=24;" parent="1" vertex="1">
                    <mxGeometry x="-295" y="1520" width="270" height="198" as="geometry">
                        <mxRectangle x="90" y="60" width="60" height="26" as="alternateBounds"/>
                    </mxGeometry>
                </mxCell>
                <mxCell id="99" value="+Mail:String&#10;+DisplayName:String &#10;+ Password:String&#10;+Host:String &#10;+Port :int " style="text;strokeColor=none;fillColor=none;align=left;verticalAlign=top;spacingLeft=4;spacingRight=4;overflow=hidden;rotatable=0;points=[[0,0.5],[1,0.5]];portConstraint=eastwest;fontSize=24;" parent="98" vertex="1">
                    <mxGeometry y="26" width="270" height="164" as="geometry"/>
                </mxCell>
                <mxCell id="100" value="" style="line;strokeWidth=1;fillColor=none;align=left;verticalAlign=middle;spacingTop=-1;spacingLeft=3;spacingRight=3;rotatable=0;labelPosition=right;points=[];portConstraint=eastwest;fontSize=24;" parent="98" vertex="1">
                    <mxGeometry y="190" width="270" height="8" as="geometry"/>
                </mxCell>
                <mxCell id="101" value="" style="endArrow=block;endSize=16;endFill=0;html=1;rounded=0;fontSize=24;strokeWidth=1;exitX=0.5;exitY=0;exitDx=0;exitDy=0;entryX=0.193;entryY=1.19;entryDx=0;entryDy=0;entryPerimeter=0;" parent="1" source="94" target="93" edge="1">
                    <mxGeometry width="160" relative="1" as="geometry">
                        <mxPoint x="-415" y="1470" as="sourcePoint"/>
                        <mxPoint x="468.0406852248393" y="1496" as="targetPoint"/>
                    </mxGeometry>
                </mxCell>
                <mxCell id="102" value="" style="endArrow=open;endFill=1;endSize=12;html=1;rounded=0;exitX=1;exitY=0.5;exitDx=0;exitDy=0;entryX=0;entryY=0.5;entryDx=0;entryDy=0;fontSize=24;" parent="1" source="97" target="99" edge="1">
                    <mxGeometry width="160" relative="1" as="geometry">
                        <mxPoint x="694.5" y="1636.432" as="sourcePoint"/>
                        <mxPoint x="785" y="1620" as="targetPoint"/>
                    </mxGeometry>
                </mxCell>
                <mxCell id="103" value="NotificationFacade" style="swimlane;fontStyle=1;align=center;verticalAlign=top;childLayout=stackLayout;horizontal=1;startSize=26;horizontalStack=0;resizeParent=1;resizeParentMax=0;resizeLast=0;collapsible=1;marginBottom=0;fontSize=24;" parent="1" vertex="1">
                    <mxGeometry x="-595" y="950" width="800" height="250" as="geometry">
                        <mxRectangle x="90" y="60" width="60" height="26" as="alternateBounds"/>
                    </mxGeometry>
                </mxCell>
                <mxCell id="104" value="- mailService:MailService&#10;- mailer:MailSettings &#10;-twilioService: TwilioService&#10;-twilio:TwilioSettings&#10;    " style="text;strokeColor=none;fillColor=none;align=left;verticalAlign=top;spacingLeft=4;spacingRight=4;overflow=hidden;rotatable=0;points=[[0,0.5],[1,0.5]];portConstraint=eastwest;fontSize=24;" parent="103" vertex="1">
                    <mxGeometry y="26" width="800" height="84" as="geometry"/>
                </mxCell>
                <mxCell id="105" value="" style="line;strokeWidth=1;fillColor=none;align=left;verticalAlign=middle;spacingTop=-1;spacingLeft=3;spacingRight=3;rotatable=0;labelPosition=right;points=[];portConstraint=eastwest;fontSize=24;" parent="103" vertex="1">
                    <mxGeometry y="110" width="800" height="8" as="geometry"/>
                </mxCell>
                <mxCell id="106" value="+NotificationFacade()&#10;+ SendReservationReminder(string type, string receiver, string Body):void&#10;+SendCancelReservationNotif(string type, string receiver):Void" style="text;strokeColor=none;fillColor=none;align=left;verticalAlign=top;spacingLeft=4;spacingRight=4;overflow=hidden;rotatable=0;points=[[0,0.5],[1,0.5]];portConstraint=eastwest;fontSize=24;" parent="103" vertex="1">
                    <mxGeometry y="118" width="800" height="132" as="geometry"/>
                </mxCell>
                <mxCell id="107" value="NotifRequest" style="swimlane;fontStyle=1;align=center;verticalAlign=top;childLayout=stackLayout;horizontal=1;startSize=26;horizontalStack=0;resizeParent=1;resizeParentMax=0;resizeLast=0;collapsible=1;marginBottom=0;fontSize=24;" parent="1" vertex="1">
                    <mxGeometry x="-825" y="1107" width="190" height="138" as="geometry">
                        <mxRectangle x="90" y="60" width="60" height="26" as="alternateBounds"/>
                    </mxGeometry>
                </mxCell>
                <mxCell id="108" value="+ To:String&#10;+Subject:String&#10;+Body: String&#10;" style="text;strokeColor=none;fillColor=none;align=left;verticalAlign=top;spacingLeft=4;spacingRight=4;overflow=hidden;rotatable=0;points=[[0,0.5],[1,0.5]];portConstraint=eastwest;fontSize=24;" parent="107" vertex="1">
                    <mxGeometry y="26" width="190" height="104" as="geometry"/>
                </mxCell>
                <mxCell id="109" value="" style="line;strokeWidth=1;fillColor=none;align=left;verticalAlign=middle;spacingTop=-1;spacingLeft=3;spacingRight=3;rotatable=0;labelPosition=right;points=[];portConstraint=eastwest;fontSize=24;" parent="107" vertex="1">
                    <mxGeometry y="130" width="190" height="8" as="geometry"/>
                </mxCell>
                <mxCell id="110" value=" TwilioSettings" style="swimlane;fontStyle=1;align=center;verticalAlign=top;childLayout=stackLayout;horizontal=1;startSize=26;horizontalStack=0;resizeParent=1;resizeParentMax=0;resizeLast=0;collapsible=1;marginBottom=0;fontSize=24;" parent="1" vertex="1">
                    <mxGeometry x="320" y="970" width="260" height="180" as="geometry">
                        <mxRectangle x="90" y="60" width="60" height="26" as="alternateBounds"/>
                    </mxGeometry>
                </mxCell>
                <mxCell id="111" value="+SID:String&#10;+AccountSID:String&#10;+AuthToken:String&#10;+Sender:String&#10;" style="text;strokeColor=none;fillColor=none;align=left;verticalAlign=top;spacingLeft=4;spacingRight=4;overflow=hidden;rotatable=0;points=[[0,0.5],[1,0.5]];portConstraint=eastwest;fontSize=24;" parent="110" vertex="1">
                    <mxGeometry y="26" width="260" height="146" as="geometry"/>
                </mxCell>
                <mxCell id="112" value="" style="line;strokeWidth=1;fillColor=none;align=left;verticalAlign=middle;spacingTop=-1;spacingLeft=3;spacingRight=3;rotatable=0;labelPosition=right;points=[];portConstraint=eastwest;fontSize=24;" parent="110" vertex="1">
                    <mxGeometry y="172" width="260" height="8" as="geometry"/>
                </mxCell>
                <mxCell id="113" value="TwilioService" style="swimlane;fontStyle=1;align=center;verticalAlign=top;childLayout=stackLayout;horizontal=1;startSize=26;horizontalStack=0;resizeParent=1;resizeParentMax=0;resizeLast=0;collapsible=1;marginBottom=0;fontSize=24;" parent="1" vertex="1">
                    <mxGeometry x="110" y="1315" width="480" height="190" as="geometry">
                        <mxRectangle x="90" y="60" width="60" height="26" as="alternateBounds"/>
                    </mxGeometry>
                </mxCell>
                <mxCell id="114" value="-twilio :TwilioSettings&#10;" style="text;strokeColor=none;fillColor=none;align=left;verticalAlign=top;spacingLeft=4;spacingRight=4;overflow=hidden;rotatable=0;points=[[0,0.5],[1,0.5]];portConstraint=eastwest;fontSize=24;" parent="113" vertex="1">
                    <mxGeometry y="26" width="480" height="64" as="geometry"/>
                </mxCell>
                <mxCell id="115" value="" style="line;strokeWidth=1;fillColor=none;align=left;verticalAlign=middle;spacingTop=-1;spacingLeft=3;spacingRight=3;rotatable=0;labelPosition=right;points=[];portConstraint=eastwest;fontSize=24;" parent="113" vertex="1">
                    <mxGeometry y="90" width="480" height="8" as="geometry"/>
                </mxCell>
                <mxCell id="116" value="+TwilioService(TwilioSettings TwilioSettings)&#10;+SendNotif(NotifRequest smsRequest)" style="text;strokeColor=none;fillColor=none;align=left;verticalAlign=top;spacingLeft=4;spacingRight=4;overflow=hidden;rotatable=0;points=[[0,0.5],[1,0.5]];portConstraint=eastwest;fontSize=24;" parent="113" vertex="1">
                    <mxGeometry y="98" width="480" height="92" as="geometry"/>
                </mxCell>
                <mxCell id="117" value="" style="endArrow=block;endSize=16;endFill=0;html=1;rounded=0;fontSize=24;strokeWidth=1;exitX=0;exitY=0.5;exitDx=0;exitDy=0;entryX=1;entryY=0.5;entryDx=0;entryDy=0;" parent="1" source="114" target="93" edge="1">
                    <mxGeometry width="160" relative="1" as="geometry">
                        <mxPoint x="-615.5" y="1565.9999999999998" as="sourcePoint"/>
                        <mxPoint x="-205.00000000000023" y="1410" as="targetPoint"/>
                    </mxGeometry>
                </mxCell>
                <mxCell id="118" value="" style="endArrow=open;endFill=1;endSize=12;html=1;rounded=0;fontSize=24;exitX=0.75;exitY=0;exitDx=0;exitDy=0;entryX=0.5;entryY=1;entryDx=0;entryDy=0;" parent="1" source="113" target="110" edge="1">
                    <mxGeometry width="160" relative="1" as="geometry">
                        <mxPoint x="184.48000000000002" y="1142.9119999999998" as="sourcePoint"/>
                        <mxPoint x="145" y="1200" as="targetPoint"/>
                    </mxGeometry>
                </mxCell>
                <mxCell id="119" value="" style="endArrow=open;endFill=1;endSize=12;html=1;rounded=0;entryX=0.5;entryY=1;entryDx=0;entryDy=0;fontSize=24;exitX=0;exitY=0;exitDx=0;exitDy=0;" parent="1" source="91" target="107" edge="1">
                    <mxGeometry width="160" relative="1" as="geometry">
                        <mxPoint x="-675" y="1380" as="sourcePoint"/>
                        <mxPoint x="-275" y="1278" as="targetPoint"/>
                    </mxGeometry>
                </mxCell>
                <mxCell id="120" value="" style="endArrow=open;endFill=1;endSize=12;html=1;rounded=0;exitX=0.204;exitY=1.042;exitDx=0;exitDy=0;entryX=0.25;entryY=0;entryDx=0;entryDy=0;exitPerimeter=0;fontSize=24;" parent="1" source="106" target="91" edge="1">
                    <mxGeometry width="160" relative="1" as="geometry">
                        <mxPoint x="-524.9999999999995" y="1418" as="sourcePoint"/>
                        <mxPoint x="-605" y="1300" as="targetPoint"/>
                    </mxGeometry>
                </mxCell>
                <mxCell id="140" value="1" style="text;html=1;align=center;verticalAlign=middle;resizable=0;points=[];autosize=1;strokeColor=none;fillColor=none;fontSize=24;" parent="1" vertex="1">
                    <mxGeometry x="100" y="1095" width="30" height="30" as="geometry"/>
                </mxCell>
                <mxCell id="152" value="1" style="text;html=1;align=center;verticalAlign=middle;resizable=0;points=[];autosize=1;strokeColor=none;fillColor=none;fontSize=24;" parent="1" vertex="1">
                    <mxGeometry x="-265" y="50" width="30" height="30" as="geometry"/>
                </mxCell>
                <mxCell id="154" value="" style="endArrow=classic;html=1;rounded=0;fontSize=24;" parent="1" source="2" target="22" edge="1">
                    <mxGeometry width="50" height="50" relative="1" as="geometry">
                        <mxPoint x="-260" y="131.9999999999999" as="sourcePoint"/>
                        <mxPoint x="-40" y="133" as="targetPoint"/>
                    </mxGeometry>
                </mxCell>
                <mxCell id="164" value="Cashier" style="swimlane;fontStyle=1;align=center;verticalAlign=top;childLayout=stackLayout;horizontal=1;startSize=26;horizontalStack=0;resizeParent=1;resizeParentMax=0;resizeLast=0;collapsible=1;marginBottom=0;fontSize=24;" parent="1" vertex="1">
                    <mxGeometry x="995" y="21" width="530" height="114" as="geometry">
                        <mxRectangle x="90" y="60" width="60" height="26" as="alternateBounds"/>
                    </mxGeometry>
                </mxCell>
                <mxCell id="165" value="" style="line;strokeWidth=1;fillColor=none;align=left;verticalAlign=middle;spacingTop=-1;spacingLeft=3;spacingRight=3;rotatable=0;labelPosition=right;points=[];portConstraint=eastwest;fontSize=24;" parent="164" vertex="1">
                    <mxGeometry y="26" width="530" height="8" as="geometry"/>
                </mxCell>
                <mxCell id="166" value="+Cashier()&#10;+Cashier(String name,int  salary,Branch branch)&#10;&#10;" style="text;strokeColor=none;fillColor=none;align=left;verticalAlign=top;spacingLeft=4;spacingRight=4;overflow=hidden;rotatable=0;points=[[0,0.5],[1,0.5]];portConstraint=eastwest;fontSize=24;" parent="164" vertex="1">
                    <mxGeometry y="34" width="530" height="80" as="geometry"/>
                </mxCell>
                <mxCell id="167" value="" style="endArrow=block;endSize=16;endFill=0;html=1;rounded=0;fontSize=24;strokeWidth=1;exitX=-0.003;exitY=0.214;exitDx=0;exitDy=0;exitPerimeter=0;" parent="1" source="166" edge="1">
                    <mxGeometry width="160" relative="1" as="geometry">
                        <mxPoint x="800" y="256" as="sourcePoint"/>
                        <mxPoint x="650" y="80" as="targetPoint"/>
                    </mxGeometry>
                </mxCell>
                <mxCell id="169" value="" style="endArrow=none;html=1;strokeColor=#000000;strokeWidth=8;fontSize=24;" parent="1" edge="1">
                    <mxGeometry width="50" height="50" relative="1" as="geometry">
                        <mxPoint x="-840" y="910" as="sourcePoint"/>
                        <mxPoint x="1900" y="890" as="targetPoint"/>
                    </mxGeometry>
                </mxCell>
                <mxCell id="170" value="" style="endArrow=none;html=1;strokeColor=#000000;strokeWidth=8;fontSize=24;" parent="1" edge="1">
                    <mxGeometry width="50" height="50" relative="1" as="geometry">
                        <mxPoint x="600" y="910" as="sourcePoint"/>
                        <mxPoint x="610" y="1790" as="targetPoint"/>
                    </mxGeometry>
                </mxCell>
                <mxCell id="171" value="" style="endArrow=none;html=1;strokeColor=#000000;strokeWidth=8;fontSize=24;" parent="1" edge="1">
                    <mxGeometry width="50" height="50" relative="1" as="geometry">
                        <mxPoint x="-825" y="1790" as="sourcePoint"/>
                        <mxPoint x="1900" y="1780" as="targetPoint"/>
                    </mxGeometry>
                </mxCell>
            </root>
        </mxGraphModel>
    </diagram>
</mxfile>